<?xml version="1.0" encoding="UTF-8" standalone="no"?>
<!DOCTYPE svg PUBLIC "-//W3C//DTD SVG 1.1//EN"
 "http://www.w3.org/Graphics/SVG/1.1/DTD/svg11.dtd">
<!-- Generated by graphviz version 5.0.0 (20220707.1540)
 -->
<!-- Title: dependencies Pages: 1 -->
<svg width="310pt" height="174pt"
 viewBox="0.00 0.00 310.00 173.80" xmlns="http://www.w3.org/2000/svg" xmlns:xlink="http://www.w3.org/1999/xlink">
<g id="graph0" class="graph" transform="scale(1 1) rotate(0) translate(4 169.8)">
<title>dependencies</title>
<polygon fill="white" stroke="transparent" points="-4,4 -4,-169.8 306,-169.8 306,4 -4,4"/>
<text text-anchor="middle" x="151" y="-8.2" font-family="sans-serif" font-size="14.00">dependencies</text>
<g id="clust1" class="cluster">
<title>cluster_ListModule</title>
<polygon fill="none" stroke="black" stroke-dasharray="1,5" points="8,-32.8 8,-157.8 294,-157.8 294,-32.8 8,-32.8"/>
</g>
<g id="clust2" class="cluster">
<title>cluster_ListModule_declarations</title>
<polygon fill="none" stroke="black" points="166,-40.8 166,-92.8 286,-92.8 286,-40.8 166,-40.8"/>
</g>
<g id="clust4" class="cluster">
<title>cluster_ListModule_imports</title>
<polygon fill="none" stroke="black" points="16,-40.8 16,-92.8 158,-92.8 158,-40.8 16,-40.8"/>
</g>
<!-- ListComponent -->
<g id="node1" class="node">
<title>ListComponent</title>
<polygon fill="#ffffb3" stroke="black" points="277.61,-84.8 174.39,-84.8 174.39,-48.8 277.61,-48.8 277.61,-84.8"/>
<text text-anchor="middle" x="226" y="-62.6" font-family="Times,serif" font-size="14.00">ListComponent</text>
</g>
<!-- ListModule -->
<g id="node2" class="node">
<title>ListModule</title>
<polygon fill="#8dd3c7" stroke="black" points="196.83,-149.8 193.83,-153.8 172.83,-153.8 169.83,-149.8 115.17,-149.8 115.17,-113.8 196.83,-113.8 196.83,-149.8"/>
<text text-anchor="middle" x="156" y="-127.6" font-family="Times,serif" font-size="14.00">ListModule</text>
</g>
<!-- ListComponent&#45;&gt;ListModule -->
<g id="edge1" class="edge">
<title>ListComponent&#45;&gt;ListModule</title>
<path fill="none" stroke="black" d="M185.56,-84.91C185.56,-84.91 185.56,-103.79 185.56,-103.79"/>
<polygon fill="black" stroke="black" points="182.06,-103.79 185.56,-113.79 189.06,-103.79 182.06,-103.79"/>
</g>
<!-- ListRoutingModule -->
<g id="node3" class="node">
<title>ListRoutingModule</title>
<polygon fill="#8dd3c7" stroke="black" points="150.45,-84.8 147.45,-88.8 126.45,-88.8 123.45,-84.8 23.55,-84.8 23.55,-48.8 150.45,-48.8 150.45,-84.8"/>
<text text-anchor="middle" x="87" y="-62.6" font-family="Times,serif" font-size="14.00">ListRoutingModule</text>
</g>
<!-- ListRoutingModule&#45;&gt;ListModule -->
<g id="edge2" class="edge">
<title>ListRoutingModule&#45;&gt;ListModule</title>
<path fill="none" stroke="black" d="M132.78,-84.91C132.78,-84.91 132.78,-103.79 132.78,-103.79"/>
<polygon fill="black" stroke="black" points="129.28,-103.79 132.78,-113.79 136.28,-103.79 129.28,-103.79"/>
</g>
</g>
</svg>
