<?xml version="1.0" encoding="UTF-8" standalone="no"?>
<!DOCTYPE svg PUBLIC "-//W3C//DTD SVG 1.1//EN"
 "http://www.w3.org/Graphics/SVG/1.1/DTD/svg11.dtd">
<!-- Generated by graphviz version 5.0.0 (20220707.1540)
 -->
<!-- Title: dependencies Pages: 1 -->
<svg width="470pt" height="247pt"
 viewBox="0.00 0.00 470.00 246.80" xmlns="http://www.w3.org/2000/svg" xmlns:xlink="http://www.w3.org/1999/xlink">
<g id="graph0" class="graph" transform="scale(1 1) rotate(0) translate(4 242.8)">
<title>dependencies</title>
<polygon fill="white" stroke="transparent" points="-4,4 -4,-242.8 466,-242.8 466,4 -4,4"/>
<text text-anchor="middle" x="231" y="-8.2" font-family="sans-serif" font-size="14.00">dependencies</text>
<g id="clust1" class="cluster">
<title>cluster_AppModule</title>
<polygon fill="none" stroke="black" stroke-dasharray="1,5" points="8,-32.8 8,-230.8 454,-230.8 454,-32.8 8,-32.8"/>
</g>
<g id="clust4" class="cluster">
<title>cluster_AppModule_imports</title>
<polygon fill="none" stroke="black" points="146,-40.8 146,-92.8 446,-92.8 446,-40.8 146,-40.8"/>
</g>
<g id="clust6" class="cluster">
<title>cluster_AppModule_bootstrap</title>
<polygon fill="none" stroke="black" points="161,-170.8 161,-222.8 285,-222.8 285,-170.8 161,-170.8"/>
</g>
<g id="clust2" class="cluster">
<title>cluster_AppModule_declarations</title>
<polygon fill="none" stroke="black" points="16,-40.8 16,-92.8 138,-92.8 138,-40.8 16,-40.8"/>
</g>
<!-- AppComponent -->
<g id="node1" class="node">
<title>AppComponent</title>
<polygon fill="#ffffb3" stroke="black" points="129.94,-84.8 24.06,-84.8 24.06,-48.8 129.94,-48.8 129.94,-84.8"/>
<text text-anchor="middle" x="77" y="-62.6" font-family="Times,serif" font-size="14.00">AppComponent</text>
</g>
<!-- AppModule -->
<g id="node2" class="node">
<title>AppModule</title>
<polygon fill="#8dd3c7" stroke="black" points="264.66,-149.8 261.66,-153.8 240.66,-153.8 237.66,-149.8 181.34,-149.8 181.34,-113.8 264.66,-113.8 264.66,-149.8"/>
<text text-anchor="middle" x="223" y="-127.6" font-family="Times,serif" font-size="14.00">AppModule</text>
</g>
<!-- AppComponent&#45;&gt;AppModule -->
<g id="edge1" class="edge">
<title>AppComponent&#45;&gt;AppModule</title>
<path fill="none" stroke="black" d="M77,-84.91C77,-104.14 77,-131.8 77,-131.8 77,-131.8 171.16,-131.8 171.16,-131.8"/>
<polygon fill="black" stroke="black" points="171.16,-135.3 181.16,-131.8 171.16,-128.3 171.16,-135.3"/>
</g>
<!-- AppComponent  -->
<g id="node5" class="node">
<title>AppComponent </title>
<polygon fill="#80b1d3" stroke="black" points="277.44,-214.8 168.56,-214.8 168.56,-178.8 277.44,-178.8 277.44,-214.8"/>
<text text-anchor="middle" x="223" y="-192.6" font-family="Times,serif" font-size="14.00">AppComponent </text>
</g>
<!-- AppModule&#45;&gt;AppComponent  -->
<g id="edge4" class="edge">
<title>AppModule&#45;&gt;AppComponent </title>
<path fill="none" stroke="black" stroke-dasharray="1,5" d="M223,-149.91C223,-149.91 223,-168.79 223,-168.79"/>
<polygon fill="black" stroke="black" points="219.5,-168.79 223,-178.79 226.5,-168.79 219.5,-168.79"/>
</g>
<!-- AppRoutingModule -->
<g id="node3" class="node">
<title>AppRoutingModule</title>
<polygon fill="#8dd3c7" stroke="black" points="438.28,-84.8 435.28,-88.8 414.28,-88.8 411.28,-84.8 309.72,-84.8 309.72,-48.8 438.28,-48.8 438.28,-84.8"/>
<text text-anchor="middle" x="374" y="-62.6" font-family="Times,serif" font-size="14.00">AppRoutingModule</text>
</g>
<!-- AppRoutingModule&#45;&gt;AppModule -->
<g id="edge2" class="edge">
<title>AppRoutingModule&#45;&gt;AppModule</title>
<path fill="none" stroke="black" d="M374,-84.91C374,-104.14 374,-131.8 374,-131.8 374,-131.8 275.06,-131.8 275.06,-131.8"/>
<polygon fill="black" stroke="black" points="275.06,-128.3 265.06,-131.8 275.06,-135.3 275.06,-128.3"/>
</g>
<!-- IconsProviderModule -->
<g id="node4" class="node">
<title>IconsProviderModule</title>
<polygon fill="#8dd3c7" stroke="black" points="292.09,-84.8 289.09,-88.8 268.09,-88.8 265.09,-84.8 153.91,-84.8 153.91,-48.8 292.09,-48.8 292.09,-84.8"/>
<text text-anchor="middle" x="223" y="-62.6" font-family="Times,serif" font-size="14.00">IconsProviderModule</text>
</g>
<!-- IconsProviderModule&#45;&gt;AppModule -->
<g id="edge3" class="edge">
<title>IconsProviderModule&#45;&gt;AppModule</title>
<path fill="none" stroke="black" d="M223,-84.91C223,-84.91 223,-103.79 223,-103.79"/>
<polygon fill="black" stroke="black" points="219.5,-103.79 223,-113.79 226.5,-103.79 219.5,-103.79"/>
</g>
</g>
</svg>
