<?xml version="1.0" encoding="UTF-8" standalone="no"?>
<!DOCTYPE svg PUBLIC "-//W3C//DTD SVG 1.1//EN"
 "http://www.w3.org/Graphics/SVG/1.1/DTD/svg11.dtd">
<!-- Generated by graphviz version 5.0.0 (20220707.1540)
 -->
<!-- Title: dependencies Pages: 1 -->
<svg width="1136pt" height="247pt"
 viewBox="0.00 0.00 1136.00 246.80" xmlns="http://www.w3.org/2000/svg" xmlns:xlink="http://www.w3.org/1999/xlink">
<g id="graph0" class="graph" transform="scale(1 1) rotate(0) translate(4 242.8)">
<title>dependencies</title>
<polygon fill="white" stroke="transparent" points="-4,4 -4,-242.8 1132,-242.8 1132,4 -4,4"/>
<text text-anchor="middle" x="564" y="-8.2" font-family="sans-serif" font-size="14.00">dependencies</text>
<g id="clust1" class="cluster">
<title>cluster_AppModule</title>
<polygon fill="none" stroke="black" stroke-dasharray="1,5" points="8,-32.8 8,-230.8 454,-230.8 454,-32.8 8,-32.8"/>
</g>
<g id="clust2" class="cluster">
<title>cluster_AppModule_declarations</title>
<polygon fill="none" stroke="black" points="324,-40.8 324,-92.8 446,-92.8 446,-40.8 324,-40.8"/>
</g>
<g id="clust4" class="cluster">
<title>cluster_AppModule_imports</title>
<polygon fill="none" stroke="black" points="16,-40.8 16,-92.8 316,-92.8 316,-40.8 16,-40.8"/>
</g>
<g id="clust6" class="cluster">
<title>cluster_AppModule_bootstrap</title>
<polygon fill="none" stroke="black" points="182,-170.8 182,-222.8 306,-222.8 306,-170.8 182,-170.8"/>
</g>
<g id="clust14" class="cluster">
<title>cluster_DashboardModule</title>
<polygon fill="none" stroke="black" stroke-dasharray="1,5" points="462,-32.8 462,-157.8 826,-157.8 826,-32.8 462,-32.8"/>
</g>
<g id="clust15" class="cluster">
<title>cluster_DashboardModule_declarations</title>
<polygon fill="none" stroke="black" points="660,-40.8 660,-92.8 818,-92.8 818,-40.8 660,-40.8"/>
</g>
<g id="clust17" class="cluster">
<title>cluster_DashboardModule_imports</title>
<polygon fill="none" stroke="black" points="470,-40.8 470,-92.8 652,-92.8 652,-40.8 470,-40.8"/>
</g>
<g id="clust33" class="cluster">
<title>cluster_ListModule</title>
<polygon fill="none" stroke="black" stroke-dasharray="1,5" points="834,-32.8 834,-157.8 1120,-157.8 1120,-32.8 834,-32.8"/>
</g>
<g id="clust34" class="cluster">
<title>cluster_ListModule_declarations</title>
<polygon fill="none" stroke="black" points="992,-40.8 992,-92.8 1112,-92.8 1112,-40.8 992,-40.8"/>
</g>
<g id="clust36" class="cluster">
<title>cluster_ListModule_imports</title>
<polygon fill="none" stroke="black" points="842,-40.8 842,-92.8 984,-92.8 984,-40.8 842,-40.8"/>
</g>
<!-- AppComponent -->
<g id="node1" class="node">
<title>AppComponent</title>
<polygon fill="#ffffb3" stroke="black" points="437.94,-84.8 332.06,-84.8 332.06,-48.8 437.94,-48.8 437.94,-84.8"/>
<text text-anchor="middle" x="385" y="-62.6" font-family="Times,serif" font-size="14.00">AppComponent</text>
</g>
<!-- AppModule -->
<g id="node2" class="node">
<title>AppModule</title>
<polygon fill="#8dd3c7" stroke="black" points="285.66,-149.8 282.66,-153.8 261.66,-153.8 258.66,-149.8 202.34,-149.8 202.34,-113.8 285.66,-113.8 285.66,-149.8"/>
<text text-anchor="middle" x="244" y="-127.6" font-family="Times,serif" font-size="14.00">AppModule</text>
</g>
<!-- AppComponent&#45;&gt;AppModule -->
<g id="edge1" class="edge">
<title>AppComponent&#45;&gt;AppModule</title>
<path fill="none" stroke="black" d="M385,-84.91C385,-104.14 385,-131.8 385,-131.8 385,-131.8 295.92,-131.8 295.92,-131.8"/>
<polygon fill="black" stroke="black" points="295.92,-128.3 285.92,-131.8 295.92,-135.3 295.92,-128.3"/>
</g>
<!-- AppComponent  -->
<g id="node5" class="node">
<title>AppComponent </title>
<polygon fill="#80b1d3" stroke="black" points="298.44,-214.8 189.56,-214.8 189.56,-178.8 298.44,-178.8 298.44,-214.8"/>
<text text-anchor="middle" x="244" y="-192.6" font-family="Times,serif" font-size="14.00">AppComponent </text>
</g>
<!-- AppModule&#45;&gt;AppComponent  -->
<g id="edge4" class="edge">
<title>AppModule&#45;&gt;AppComponent </title>
<path fill="none" stroke="black" stroke-dasharray="1,5" d="M244,-149.91C244,-149.91 244,-168.79 244,-168.79"/>
<polygon fill="black" stroke="black" points="240.5,-168.79 244,-178.79 247.5,-168.79 240.5,-168.79"/>
</g>
<!-- AppRoutingModule -->
<g id="node3" class="node">
<title>AppRoutingModule</title>
<polygon fill="#8dd3c7" stroke="black" points="308.28,-84.8 305.28,-88.8 284.28,-88.8 281.28,-84.8 179.72,-84.8 179.72,-48.8 308.28,-48.8 308.28,-84.8"/>
<text text-anchor="middle" x="244" y="-62.6" font-family="Times,serif" font-size="14.00">AppRoutingModule</text>
</g>
<!-- AppRoutingModule&#45;&gt;AppModule -->
<g id="edge2" class="edge">
<title>AppRoutingModule&#45;&gt;AppModule</title>
<path fill="none" stroke="black" d="M244,-84.91C244,-84.91 244,-103.79 244,-103.79"/>
<polygon fill="black" stroke="black" points="240.5,-103.79 244,-113.79 247.5,-103.79 240.5,-103.79"/>
</g>
<!-- IconsProviderModule -->
<g id="node4" class="node">
<title>IconsProviderModule</title>
<polygon fill="#8dd3c7" stroke="black" points="162.09,-84.8 159.09,-88.8 138.09,-88.8 135.09,-84.8 23.91,-84.8 23.91,-48.8 162.09,-48.8 162.09,-84.8"/>
<text text-anchor="middle" x="93" y="-62.6" font-family="Times,serif" font-size="14.00">IconsProviderModule</text>
</g>
<!-- IconsProviderModule&#45;&gt;AppModule -->
<g id="edge3" class="edge">
<title>IconsProviderModule&#45;&gt;AppModule</title>
<path fill="none" stroke="black" d="M93,-84.91C93,-104.14 93,-131.8 93,-131.8 93,-131.8 191.94,-131.8 191.94,-131.8"/>
<polygon fill="black" stroke="black" points="191.94,-135.3 201.94,-131.8 191.94,-128.3 191.94,-135.3"/>
</g>
<!-- DashboardComponent -->
<g id="node6" class="node">
<title>DashboardComponent</title>
<polygon fill="#ffffb3" stroke="black" points="809.98,-84.8 668.02,-84.8 668.02,-48.8 809.98,-48.8 809.98,-84.8"/>
<text text-anchor="middle" x="739" y="-62.6" font-family="Times,serif" font-size="14.00">DashboardComponent</text>
</g>
<!-- DashboardModule -->
<g id="node7" class="node">
<title>DashboardModule</title>
<polygon fill="#8dd3c7" stroke="black" points="710.2,-149.8 707.2,-153.8 686.2,-153.8 683.2,-149.8 589.8,-149.8 589.8,-113.8 710.2,-113.8 710.2,-149.8"/>
<text text-anchor="middle" x="650" y="-127.6" font-family="Times,serif" font-size="14.00">DashboardModule</text>
</g>
<!-- DashboardComponent&#45;&gt;DashboardModule -->
<g id="edge5" class="edge">
<title>DashboardComponent&#45;&gt;DashboardModule</title>
<path fill="none" stroke="black" d="M689.06,-84.91C689.06,-84.91 689.06,-103.79 689.06,-103.79"/>
<polygon fill="black" stroke="black" points="685.56,-103.79 689.06,-113.79 692.56,-103.79 685.56,-103.79"/>
</g>
<!-- DashboardRoutingModule -->
<g id="node8" class="node">
<title>DashboardRoutingModule</title>
<polygon fill="#8dd3c7" stroke="black" points="643.82,-84.8 640.82,-88.8 619.82,-88.8 616.82,-84.8 478.18,-84.8 478.18,-48.8 643.82,-48.8 643.82,-84.8"/>
<text text-anchor="middle" x="561" y="-62.6" font-family="Times,serif" font-size="14.00">DashboardRoutingModule</text>
</g>
<!-- DashboardRoutingModule&#45;&gt;DashboardModule -->
<g id="edge6" class="edge">
<title>DashboardRoutingModule&#45;&gt;DashboardModule</title>
<path fill="none" stroke="black" d="M616.78,-84.91C616.78,-84.91 616.78,-103.79 616.78,-103.79"/>
<polygon fill="black" stroke="black" points="613.28,-103.79 616.78,-113.79 620.28,-103.79 613.28,-103.79"/>
</g>
<!-- ListComponent -->
<g id="node9" class="node">
<title>ListComponent</title>
<polygon fill="#ffffb3" stroke="black" points="1103.61,-84.8 1000.39,-84.8 1000.39,-48.8 1103.61,-48.8 1103.61,-84.8"/>
<text text-anchor="middle" x="1052" y="-62.6" font-family="Times,serif" font-size="14.00">ListComponent</text>
</g>
<!-- ListModule -->
<g id="node10" class="node">
<title>ListModule</title>
<polygon fill="#8dd3c7" stroke="black" points="1022.83,-149.8 1019.83,-153.8 998.83,-153.8 995.83,-149.8 941.17,-149.8 941.17,-113.8 1022.83,-113.8 1022.83,-149.8"/>
<text text-anchor="middle" x="982" y="-127.6" font-family="Times,serif" font-size="14.00">ListModule</text>
</g>
<!-- ListComponent&#45;&gt;ListModule -->
<g id="edge7" class="edge">
<title>ListComponent&#45;&gt;ListModule</title>
<path fill="none" stroke="black" d="M1011.56,-84.91C1011.56,-84.91 1011.56,-103.79 1011.56,-103.79"/>
<polygon fill="black" stroke="black" points="1008.06,-103.79 1011.56,-113.79 1015.06,-103.79 1008.06,-103.79"/>
</g>
<!-- ListRoutingModule -->
<g id="node11" class="node">
<title>ListRoutingModule</title>
<polygon fill="#8dd3c7" stroke="black" points="976.45,-84.8 973.45,-88.8 952.45,-88.8 949.45,-84.8 849.55,-84.8 849.55,-48.8 976.45,-48.8 976.45,-84.8"/>
<text text-anchor="middle" x="913" y="-62.6" font-family="Times,serif" font-size="14.00">ListRoutingModule</text>
</g>
<!-- ListRoutingModule&#45;&gt;ListModule -->
<g id="edge8" class="edge">
<title>ListRoutingModule&#45;&gt;ListModule</title>
<path fill="none" stroke="black" d="M958.78,-84.91C958.78,-84.91 958.78,-103.79 958.78,-103.79"/>
<polygon fill="black" stroke="black" points="955.28,-103.79 958.78,-113.79 962.28,-103.79 955.28,-103.79"/>
</g>
</g>
</svg>
